<svg width="24" height="25" viewBox="0 0 24 25" fill="none" xmlns="http://www.w3.org/2000/svg">
    <path
        d="M21 12.7292C21 7.01042 16.74 3.125 12 3.125C7.31 3.125 3 6.92708 3 12.7917C2.4 13.1458 2 13.8125 2 14.5833V16.6667C2 17.8125 2.9 18.75 4 18.75H5V12.3958C5 8.36458 8.13 5.10417 12 5.10417C15.87 5.10417 19 8.36458 19 12.3958V19.7917H11V21.875H19C20.1 21.875 21 20.9375 21 19.7917V18.5208C21.59 18.1979 22 17.5625 22 16.8125V14.4167C22 13.6875 21.59 13.0521 21 12.7292Z"
        fill="#191919" />
    <path
        d="M9 14.5833C9.55228 14.5833 10 14.117 10 13.5417C10 12.9664 9.55228 12.5 9 12.5C8.44772 12.5 8 12.9664 8 13.5417C8 14.117 8.44772 14.5833 9 14.5833Z"
        fill="#191919" />
    <path
        d="M15 14.5833C15.5523 14.5833 16 14.117 16 13.5417C16 12.9664 15.5523 12.5 15 12.5C14.4477 12.5 14 12.9664 14 13.5417C14 14.117 14.4477 14.5833 15 14.5833Z"
        fill="#191919" />
    <path
        d="M18 11.4896C17.7615 10.0251 17.0334 8.6958 15.9444 7.73686C14.8555 6.77791 13.4759 6.25122 12.05 6.25C9.01997 6.25 5.75997 8.86458 6.01997 12.9688C7.2531 12.4431 8.34221 11.6078 9.1902 10.5373C10.0382 9.46675 10.6187 8.19429 10.88 6.83333C12.19 9.57292 14.88 11.4583 18 11.4896Z"
        fill="#191919" />
</svg>
