<svg width="24" height="26" viewBox="0 0 24 26" fill="none" xmlns="http://www.w3.org/2000/svg">
<g clip-path="url(#clip0_450_255)">
<path d="M4 12.3054L0 9.87492L12 2.58325L24 9.87492V18.7291H22V11.0902L20 12.3054V19.2617L19.7774 19.5483C17.9457 21.9061 15.1418 23.4166 12 23.4166C8.85817 23.4166 6.05429 21.9061 4.22263 19.5483L4 19.2617V12.3054ZM6 13.5208V18.5121C7.46721 20.2437 9.61112 21.3333 12 21.3333C14.3889 21.3333 16.5328 20.2437 18 18.5121V13.5208L12 17.1666L6 13.5208ZM3.96927 9.87492L12 14.7547L20.0307 9.87492L12 4.99514L3.96927 9.87492Z" fill="black"/>
<path d="M4 11.8333L0 9.5L12 2.5L24 9.5V18H22V10.6667L20 11.8333V18.5113L19.7774 18.7864C17.9457 21.0499 15.1418 22.5 12 22.5C8.85817 22.5 6.05429 21.0499 4.22263 18.7864L4 18.5113V11.8333ZM6 13V17.7917C7.46721 19.454 9.61112 20.5 12 20.5C14.3889 20.5 16.5328 19.454 18 17.7917V13L12 16.5L6 13ZM3.96927 9.5L12 14.1846L20.0307 9.5L12 4.81541L3.96927 9.5Z" fill="black"/>
</g>
<defs>
<clipPath id="clip0_450_255">
<rect width="24" height="25" fill="white" transform="translate(0 0.5)"/>
</clipPath>
</defs>
</svg>
