<svg width="261" height="264" viewBox="0 0 261 264" fill="none" xmlns="http://www.w3.org/2000/svg">
<g clip-path="url(#clip0_474_584)">
<path d="M130.295 263.039C202.255 263.039 260.59 259.612 260.59 255.386C260.59 251.159 202.255 247.732 130.295 247.732C58.3351 247.732 0 251.159 0 255.386C0 259.612 58.3351 263.039 130.295 263.039Z" fill="#F0F0F0"/>
<path d="M147.706 60.8957H146.305V22.496C146.305 16.6016 143.964 10.9487 139.796 6.78073C135.628 2.61277 129.975 0.271242 124.081 0.271242H42.7236C39.8044 0.270236 36.9136 0.844355 34.2162 1.9608C31.5189 3.07725 29.068 4.71416 27.0034 6.77802C24.9388 8.84188 23.3011 11.2923 22.1837 13.9892C21.0663 16.6861 20.4912 19.5768 20.4912 22.496V233.161C20.4912 239.055 22.8327 244.708 27.0007 248.876C31.1686 253.044 36.8216 255.385 42.716 255.385H124.073C129.967 255.385 135.62 253.044 139.788 248.876C143.956 244.708 146.298 239.055 146.298 233.161V88.229H147.698L147.706 60.8957Z" fill="#3F3D56"/>
<path d="M141.572 22.6529V233.004C141.572 237.406 139.824 241.627 136.712 244.74C133.599 247.853 129.378 249.603 124.976 249.604H43.2292C38.8277 249.604 34.6065 247.855 31.4941 244.743C28.3818 241.63 26.6333 237.409 26.6333 233.008V22.6529C26.6333 18.2511 28.3817 14.0295 31.4939 10.9165C34.6061 7.80358 38.8273 6.05424 43.2292 6.05322H53.1477C52.7559 7.01321 52.5572 8.041 52.563 9.07783C52.5687 10.1147 52.7787 11.1402 53.181 12.0958C53.5833 13.0514 54.1699 13.9184 54.9075 14.6471C55.645 15.3759 56.519 15.9521 57.4794 16.3429C58.4225 16.7261 59.4308 16.9236 60.4488 16.9245H107.057C108.093 16.924 109.118 16.7194 110.075 16.3224C111.032 15.9253 111.901 15.3436 112.633 14.6106C113.365 13.8775 113.946 13.0073 114.342 12.0498C114.737 11.0924 114.94 10.0663 114.939 9.0303C114.939 8.01225 114.741 7.00392 114.358 6.06088H124.976C129.378 6.06189 133.599 7.81123 136.712 10.9242C139.824 14.0371 141.572 18.2587 141.572 22.6606V22.6529Z" fill="white"/>
<path d="M64.3934 181.915H62.6753L63.2493 148.337H63.8233L64.3934 181.915Z" fill="#E6E6E6"/>
<path d="M65.829 127.195L68.6033 122.906C67.7795 120.632 66.8291 118.407 65.7563 116.24L63.9616 117.69L65.3813 115.493C64.0267 112.815 62.9629 111.15 62.9629 111.15C62.9629 111.15 57.399 119.921 55.5393 129.208L59.098 134.711L55.1567 131.527C55.0183 132.608 54.9467 133.697 54.9424 134.787C54.9424 145.785 58.5317 154.685 62.9782 154.685C67.4247 154.685 71.014 145.769 71.014 134.787C71.014 131.378 70.2487 127.811 69.1772 124.513L65.829 127.195Z" fill="#F0F0F0"/>
<path d="M109.149 181.915H107.431L108.005 148.337H108.579L109.149 181.915Z" fill="#E6E6E6"/>
<path d="M110.584 127.195L113.358 122.906C112.534 120.632 111.584 118.407 110.511 116.24L108.716 117.69L110.136 115.493C108.781 112.815 107.718 111.15 107.718 111.15C107.718 111.15 102.154 119.921 100.294 129.204L103.853 134.711L99.9115 131.523C99.77 132.605 99.6972 133.696 99.6934 134.787C99.6934 145.785 103.287 154.685 107.729 154.685C112.172 154.685 115.765 145.769 115.765 134.787C115.765 131.378 115 127.811 113.928 124.509L110.584 127.195Z" fill="#F0F0F0"/>
<path d="M63.0886 70.6038C71.8126 70.6038 78.8847 63.5317 78.8847 54.8077C78.8847 46.0838 71.8126 39.0116 63.0886 39.0116C54.3646 39.0116 47.2925 46.0838 47.2925 54.8077C47.2925 63.5317 54.3646 70.6038 63.0886 70.6038Z" fill="#F0F0F0"/>
<path d="M84.9653 177.029H81.4219L82.6043 107.798H83.7829L84.9653 177.029Z" fill="#E6E6E6"/>
<path d="M87.9193 64.1944L93.64 55.355C91.9448 50.6623 89.985 46.0694 87.7701 41.5985L84.0698 44.587L87.0009 40.0602C84.2075 34.5652 82.0264 31.1022 82.0264 31.1022C82.0264 31.1022 70.5466 49.1866 66.72 68.331L74.0633 79.6921L65.9356 73.1257C65.638 75.3598 65.4821 77.6105 65.4688 79.8643C65.4688 102.541 72.8732 120.923 82.0111 120.923C91.1489 120.923 98.5534 102.525 98.5534 79.8643C98.5534 72.8349 96.9653 65.4802 94.7689 58.6803L87.9193 64.1944Z" fill="#F0F0F0"/>
<path d="M141.572 187.009V234.075C141.572 243.619 134.141 251.36 124.976 251.36H43.2292C34.0645 251.36 26.6333 243.623 26.6333 234.075V191.6C40.7916 174.274 61.2983 163.919 83.1366 163.046C104.975 162.174 126.17 170.86 141.572 187.009Z" fill="#E6E6E6"/>
<path opacity="0.2" d="M84.1927 233.44C97.5513 233.44 108.381 222.611 108.381 209.252C108.381 195.894 97.5513 185.064 84.1927 185.064C70.8341 185.064 60.0049 195.894 60.0049 209.252C60.0049 222.611 70.8341 233.44 84.1927 233.44Z" fill="#6C63FF"/>
<path d="M84.1921 228.73C94.9491 228.73 103.669 220.009 103.669 209.252C103.669 198.495 94.9491 189.775 84.1921 189.775C73.4351 189.775 64.7148 198.495 64.7148 209.252C64.7148 220.009 73.4351 228.73 84.1921 228.73Z" fill="#DB1E37"/>
<path d="M81.9192 217.579L75.0581 208.755L79.0492 205.652L82.298 209.83L93.2765 198.24L96.9461 201.718L81.9192 217.579Z" fill="white"/>
<path d="M187.69 178.961C194.664 178.961 200.318 173.307 200.318 166.333C200.318 159.359 194.664 153.706 187.69 153.706C180.716 153.706 175.062 159.359 175.062 166.333C175.062 173.307 180.716 178.961 187.69 178.961Z" fill="#2F2E41"/>
<path d="M192.806 237.225L193.778 241.817L211.943 240.248L210.508 233.475L192.806 237.225Z" fill="#FFB8B8"/>
<path d="M191.39 251.567L188.329 237.141L193.904 235.962L195.779 244.813C196.091 246.291 195.803 247.832 194.98 249.099C194.156 250.365 192.864 251.253 191.386 251.567H191.39Z" fill="#2F2E41"/>
<path d="M181.426 236.98L179.382 241.189L162.125 235.311L165.136 229.101L181.426 236.98Z" fill="#FFB8B8"/>
<path d="M176.715 243.642L180.656 235.495L185.784 237.979L179.359 251.249C178.686 250.923 178.083 250.468 177.586 249.909C177.089 249.351 176.707 248.7 176.461 247.993C176.216 247.287 176.112 246.539 176.155 245.792C176.199 245.046 176.389 244.315 176.715 243.642Z" fill="#2F2E41"/>
<path d="M147.423 228.638C147.954 228.737 148.498 228.73 149.026 228.619C149.554 228.507 150.055 228.293 150.5 227.987C150.945 227.682 151.325 227.292 151.619 226.84C151.914 226.387 152.116 225.881 152.214 225.351C152.26 225.112 152.284 224.87 152.287 224.628L180.745 198.389L173.677 192.917L147.917 220.445C146.823 220.509 145.799 221.005 145.071 221.824C144.342 222.643 143.969 223.717 144.033 224.811C144.087 225.738 144.452 226.62 145.068 227.314C145.685 228.008 146.517 228.474 147.431 228.638H147.423Z" fill="#FFB8B8"/>
<path d="M186.102 179.531C191.292 179.531 195.5 175.324 195.5 170.133C195.5 164.943 191.292 160.735 186.102 160.735C180.911 160.735 176.704 164.943 176.704 170.133C176.704 175.324 180.911 179.531 186.102 179.531Z" fill="#FFB8B8"/>
<path d="M194.535 225.377C187.946 225.377 179.994 223.988 175.108 218.31L174.997 218.18L175.112 218.053C175.15 218.015 178.751 213.894 175.154 206.551L170.206 208.081L165.281 201.576L168.01 193.391L179.176 184.399C180.773 183.116 182.72 182.344 184.762 182.183C188.461 181.824 192.063 180.798 195.396 179.156C196.92 178.414 198.6 178.046 200.294 178.085H200.513C201.521 178.118 202.475 178.548 203.168 179.281C203.861 180.014 204.237 180.991 204.213 181.999C204.213 182.061 204.213 182.122 204.213 182.183C203.448 191.991 202.12 215.681 206.05 223.839L206.149 224.05L205.923 224.107C202.191 224.948 198.377 225.374 194.551 225.377H194.535Z" fill="#DB1E37"/>
<path d="M176.398 218.184C176.398 218.184 151.525 215.888 148.846 223.158C146.168 230.429 149.229 233.873 153.821 235.403C158.413 236.934 169.51 238.847 169.51 238.847L174.485 232.725L187.495 233.49C187.495 233.49 201.994 241.908 206 250.889C206.861 252.835 208.232 254.512 209.969 255.741C211.706 256.97 213.744 257.705 215.865 257.869C219.08 258.091 221.934 256.878 221.934 251.858C221.934 240.378 205.863 223.924 205.863 223.924L176.398 218.184Z" fill="#2F2E41"/>
<path d="M157.456 229.484C157.456 229.484 163.961 227.57 174.293 232.545L157.456 229.484Z" fill="#2F2E41"/>
<path d="M176.727 164.137C180.397 166.378 184.535 167.743 188.819 168.124L187.544 166.594C188.472 166.938 189.448 167.132 190.437 167.168C190.932 167.183 191.423 167.082 191.872 166.872C192.321 166.663 192.714 166.351 193.02 165.962C193.27 165.558 193.419 165.099 193.454 164.624C193.489 164.15 193.408 163.674 193.219 163.238C192.829 162.369 192.225 161.613 191.463 161.041C190.11 159.972 188.513 159.253 186.816 158.95C185.118 158.647 183.371 158.769 181.732 159.304C180.605 159.637 179.597 160.284 178.824 161.168C178.445 161.611 178.182 162.141 178.057 162.71C177.932 163.279 177.95 163.871 178.108 164.432" fill="#2F2E41"/>
<path d="M187.621 156.625C189.29 152.748 191.789 149.284 194.941 146.477C196.969 144.679 199.334 143.133 202.001 142.651C204.669 142.169 207.676 142.984 209.314 145.142C210.653 146.906 210.902 149.271 210.757 151.482C210.611 153.694 210.114 155.883 210.163 158.095C210.201 159.877 210.59 161.633 211.306 163.265C212.023 164.896 213.054 166.371 214.341 167.604C215.628 168.837 217.145 169.804 218.805 170.451C220.466 171.098 222.238 171.411 224.02 171.373C225.914 171.333 227.78 170.896 229.495 170.091C227.199 171.365 225.397 173.382 223.258 174.916C221.119 176.451 218.283 177.503 215.869 176.489C213.297 175.418 212.119 172.502 211.197 169.873L207.091 158.148C206.394 156.155 205.66 154.104 204.236 152.542C202.813 150.981 200.501 150.036 198.538 150.817C197.054 151.414 196.085 152.829 195.236 154.184C194.386 155.539 193.491 156.985 192.06 157.697C190.629 158.409 188.501 157.972 188.034 156.442" fill="#2F2E41"/>
<path d="M190.843 225.412C190.682 225.412 190.521 225.412 190.361 225.385C189.252 225.26 188.237 224.7 187.541 223.827C186.845 222.955 186.524 221.841 186.649 220.732C186.765 219.702 187.256 218.752 188.029 218.062C188.803 217.372 189.803 216.992 190.839 216.994C191.026 216.994 191.213 217.008 191.398 217.036L204.247 203.356L202.908 198.886L209.643 195.863L211.529 200.478C212.163 202.041 212.275 203.767 211.85 205.4C211.425 207.032 210.484 208.484 209.168 209.539L195.01 220.79C195.025 220.927 195.033 221.065 195.033 221.203C195.033 221.795 194.908 222.381 194.666 222.922C194.424 223.462 194.07 223.946 193.629 224.341C192.865 225.031 191.872 225.413 190.843 225.412Z" fill="#FFB8B8"/>
<path d="M200.888 179.918C201.765 179.529 202.76 179.504 203.656 179.848C204.551 180.192 205.273 180.878 205.663 181.755L205.721 181.889L212.367 198.668L202.036 205.556L200.888 179.918Z" fill="#DB1E37"/>
</g>
<defs>
<clipPath id="clip0_474_584">
<rect width="260.59" height="262.767" fill="white" transform="translate(0 0.27124)"/>
</clipPath>
</defs>
</svg>
