<svg width="282" height="187" viewBox="0 0 282 187" fill="none" xmlns="http://www.w3.org/2000/svg">
<g clip-path="url(#clip0_474_613)">
<path d="M101.157 107.622C110.821 90.6572 129.256 77.6326 148.772 78.8869C134.377 94.5054 125.983 114.702 125.076 135.902C124.752 144.081 125.25 153.209 119.81 159.333C116.425 163.143 111.248 164.986 106.173 165.373C101.097 165.761 95.9953 164.844 90.9762 163.93L89.7577 164.302C89.2833 144.797 91.492 124.584 101.157 107.622Z" fill="#F0F0F0"/>
<path d="M148.799 79.2951C134.37 86.226 122.063 97.804 114.509 111.923C112.876 114.976 111.485 118.215 110.881 121.638C110.276 125.06 110.697 128.323 111.868 131.577C112.941 134.553 114.382 137.469 114.711 140.652C115.058 144.007 113.822 147.145 111.595 149.633C108.871 152.68 105.212 154.567 101.569 156.289C97.525 158.2 93.2944 160.134 90.4306 163.684C90.0837 164.116 89.4315 163.554 89.7784 163.122C94.7619 156.91 103.291 155.748 109.206 150.748C111.966 148.414 114.038 145.237 113.908 141.513C113.795 138.259 112.31 135.248 111.198 132.245C110.03 129.092 109.449 125.924 109.867 122.563C110.297 119.123 111.563 115.825 113.11 112.745C116.599 105.797 121.379 99.4192 126.848 93.9023C133.142 87.5671 140.474 82.3518 148.529 78.4817C149.027 78.242 149.305 79.0585 148.807 79.2951H148.799Z" fill="white"/>
<path d="M116.721 107.205C114.512 105.588 112.951 103.24 112.315 100.581C111.679 97.9224 112.011 95.1246 113.25 92.6865C113.504 92.1955 114.281 92.5623 114.029 93.0563C112.87 95.3246 112.562 97.9314 113.16 100.406C113.758 102.881 115.223 105.062 117.29 106.554C117.735 106.88 117.169 107.527 116.721 107.205Z" fill="white"/>
<path d="M111.127 130.157C116.67 129.347 121.704 126.484 125.227 122.137C125.576 121.706 126.229 122.268 125.879 122.699C122.205 127.217 116.96 130.186 111.189 131.015C110.64 131.092 110.578 130.234 111.127 130.157Z" fill="white"/>
<path d="M133.563 88.6309C134.29 89.4314 135.205 90.0395 136.225 90.4008C137.245 90.7622 138.339 90.8655 139.409 90.7016C139.958 90.6158 140.017 91.4737 139.475 91.5565C138.291 91.7325 137.082 91.6164 135.954 91.2183C134.826 90.8201 133.813 90.1522 133.003 89.2729C132.92 89.1965 132.869 89.0914 132.86 88.979C132.851 88.8665 132.885 88.7548 132.955 88.6664C133.03 88.5849 133.133 88.5349 133.243 88.5266C133.353 88.5184 133.463 88.5525 133.548 88.6221L133.563 88.6309Z" fill="white"/>
<path d="M187.6 132.399C187.259 132.464 186.918 132.526 186.574 132.597C181.991 133.468 177.487 134.709 173.106 136.31C172.765 136.428 172.424 136.552 172.086 136.683C161.573 140.649 151.889 146.529 143.527 154.023C140.204 157.008 137.111 160.241 134.278 163.693C130.367 168.464 126.504 173.946 121.393 177.055C120.863 177.385 120.312 177.681 119.745 177.942L90.2972 165.755C90.2438 165.693 90.1875 165.637 90.1341 165.577L88.9482 165.143C89.0817 164.956 89.224 164.764 89.3574 164.575C89.4344 164.465 89.5175 164.359 89.5945 164.249C89.6716 164.14 89.7013 164.104 89.7457 164.036L89.7961 163.971C89.8406 163.903 89.888 163.844 89.9295 163.782C90.7201 162.705 91.5235 161.631 92.3398 160.56C92.3398 160.56 92.3398 160.56 92.3546 160.56C98.5655 152.423 105.512 144.729 113.404 138.33C113.641 138.138 113.881 137.94 114.133 137.739C117.708 134.875 121.511 132.308 125.505 130.062C127.697 128.839 129.949 127.728 132.253 126.731C138.212 124.173 144.536 122.564 150.995 121.963C163.871 120.78 176.986 123.699 186.868 131.769C187.105 131.982 187.366 132.186 187.6 132.399Z" fill="#F0F0F0"/>
<path d="M187.366 132.745C171.653 129.61 154.852 131.461 140.302 138.197C137.153 139.652 134.076 141.404 131.541 143.773C129.006 146.142 127.361 149.003 126.332 152.304C125.393 155.324 124.785 158.516 123.128 161.258C121.378 164.146 118.5 165.906 115.218 166.556C111.204 167.352 107.145 166.66 103.199 165.846C98.8145 164.959 94.2786 163.936 89.8376 165.066C89.301 165.202 89.1201 164.359 89.6567 164.222C97.3796 162.261 104.895 166.453 112.636 166.015C116.247 165.811 119.819 164.518 121.962 161.468C123.833 158.806 124.468 155.505 125.39 152.44C126.362 149.222 127.809 146.341 130.172 143.909C132.588 141.421 135.588 139.546 138.683 138.017C145.662 134.567 153.325 132.343 161.022 131.228C169.877 129.945 178.887 130.183 187.662 131.932C188.204 132.038 187.932 132.855 187.392 132.748L187.366 132.745Z" fill="white"/>
<path d="M144.927 135.76C144.135 133.142 144.302 130.329 145.396 127.822C146.49 125.315 148.441 123.277 150.9 122.072C151.398 121.833 151.79 122.593 151.298 122.836C149.004 123.953 147.186 125.851 146.172 128.187C145.158 130.524 145.014 133.146 145.766 135.579C145.929 136.106 145.087 136.286 144.924 135.76H144.927Z" fill="white"/>
<path d="M126.62 150.71C131.532 153.399 137.28 154.138 142.715 152.781C143.254 152.647 143.435 153.488 142.896 153.624C137.237 155.023 131.259 154.242 126.151 151.438C125.665 151.16 126.134 150.444 126.62 150.71Z" fill="white"/>
<path d="M169.578 131.044C169.674 132.121 170.036 133.157 170.632 134.059C171.228 134.962 172.039 135.703 172.993 136.215C173.482 136.475 173.011 137.197 172.525 136.937C171.474 136.366 170.579 135.547 169.919 134.551C169.258 133.555 168.852 132.413 168.736 131.225C168.716 131.113 168.739 130.999 168.801 130.904C168.863 130.809 168.958 130.741 169.068 130.713C169.18 130.69 169.296 130.712 169.391 130.774C169.487 130.836 169.554 130.933 169.578 131.044Z" fill="white"/>
<path d="M131.5 152.508C127.376 132.609 122.221 125.977 122.221 125.977L120.249 124.454L117.877 122.617V122.38L117.317 122.191L117.184 122.087L116.967 121.921L116.935 121.96L116.86 122.034L106.143 118.401L92.5444 113.793L86.2712 105.625C85.2459 104.296 83.926 103.221 82.4148 102.486C80.9037 101.75 79.2424 101.374 77.5611 101.386L57.4519 101.534C54.7329 101.554 52.1198 102.588 50.1263 104.433L36.9069 116.665L16.3056 126.48L16.273 126.444L16.0566 126.601L12.8725 128.119L13.0059 128.799L11.0345 130.219C11.0345 130.219 5.87894 136.393 1.75512 154.907C0.702672 159.617 0.186824 169.725 5.09446e-05 182.175C-0.00936287 182.8 0.104566 183.42 0.335331 184C0.566096 184.58 0.909177 185.11 1.34498 185.558C1.78078 186.006 2.30077 186.364 2.87524 186.611C3.44971 186.859 4.06742 186.991 4.69308 187H128.494C129.12 187 129.739 186.877 130.318 186.638C130.896 186.399 131.421 186.048 131.864 185.607C132.306 185.165 132.657 184.64 132.896 184.063C133.135 183.486 133.258 182.868 133.258 182.243V182.181C133.074 168.63 132.558 157.617 131.5 152.508Z" fill="#DB1E37"/>
<path d="M145.615 17.3523C143.496 17.3513 141.397 17.7668 139.439 18.5751C137.481 19.3833 135.701 20.5685 134.202 22.0629C132.703 23.5574 131.514 25.3318 130.702 27.2849C129.89 29.238 129.472 31.3315 129.471 33.4459C129.47 35.5603 129.886 37.6542 130.696 39.6081C131.506 41.5619 132.694 43.3374 134.192 44.8332C135.689 46.329 137.468 47.5158 139.425 48.3259C141.383 49.1359 143.481 49.5533 145.6 49.5543H265.87C270.149 49.5543 274.254 47.858 277.28 44.8384C280.306 41.8189 282.006 37.7236 282.006 33.4533C282.006 29.183 280.306 25.0877 277.28 22.0682C274.254 19.0486 270.149 17.3523 265.87 17.3523H145.615Z" fill="#E5E5E5"/>
<path d="M145.615 20.6121C143.908 20.5862 142.213 20.8993 140.629 21.5331C139.045 22.1669 137.603 23.1088 136.386 24.3039C135.17 25.499 134.205 26.9235 133.546 28.4945C132.886 30.0655 132.547 31.7516 132.547 33.4547C132.547 35.1578 132.886 36.8439 133.546 38.4149C134.205 39.9859 135.17 41.4104 136.386 42.6055C137.603 43.8006 139.045 44.7425 140.629 45.3763C142.213 46.0101 143.908 46.3232 145.615 46.2974H265.87C267.576 46.3232 269.271 46.0101 270.855 45.3763C272.44 44.7425 273.882 43.8006 275.098 42.6055C276.314 41.4104 277.28 39.9859 277.939 38.4149C278.598 36.8439 278.937 35.1578 278.937 33.4547C278.937 31.7516 278.598 30.0655 277.939 28.4945C277.28 26.9235 276.314 25.499 275.098 24.3039C273.882 23.1088 272.44 22.1669 270.855 21.5331C269.271 20.8993 267.576 20.5862 265.87 20.6121H145.615Z" fill="white"/>
<path d="M70.6534 93.8461C85.2027 93.8461 96.9972 82.0776 96.9972 67.5603C96.9972 53.0431 85.2027 41.2745 70.6534 41.2745C56.1041 41.2745 44.3096 53.0431 44.3096 67.5603C44.3096 82.0776 56.1041 93.8461 70.6534 93.8461Z" fill="#9E616A"/>
<path d="M63.9146 92.5593L63.5767 91.8168C63.6211 91.8168 63.6626 91.8168 63.7071 91.8168L63.9146 92.5593Z" fill="#2F2E41"/>
<path d="M43.5802 42.4696C44.9113 41.4077 46.4707 40.4345 48.1724 40.4877C49.8741 40.5409 51.6055 42.0792 51.2527 43.7416C54.3813 38.2134 59.3615 33.9615 65.3191 31.7322C71.2767 29.503 77.831 29.4389 83.8312 31.5512C88.0647 33.0303 92.2182 36.0239 93.1906 40.399C93.4396 41.5201 93.487 42.7655 94.1956 43.6529C95.085 44.8006 96.7778 45.0609 98.1712 44.6557H98.2127C98.4485 44.5764 98.7026 44.5693 98.9425 44.6353C99.1824 44.7012 99.397 44.8372 99.5589 45.0257C99.7208 45.2142 99.8225 45.4468 99.851 45.6934C99.8794 45.94 99.8334 46.1895 99.7187 46.4098L98.5329 48.6403C100.042 48.975 101.611 48.9415 103.104 48.5426C103.353 48.4761 103.616 48.4883 103.858 48.5776C104.099 48.6668 104.307 48.8287 104.452 49.0408C104.597 49.2529 104.672 49.5047 104.668 49.7615C104.663 50.0183 104.579 50.2674 104.427 50.4743C100.475 55.8847 93.8754 59.3782 87.1427 59.3486C82.3548 59.322 77.5195 57.6743 72.859 58.757C71.2718 59.1297 69.7738 59.8108 68.4505 60.7615C67.1272 61.7122 66.0047 62.9137 65.1471 64.2975C64.2894 65.6812 63.7135 67.2201 63.4522 68.826C63.1909 70.432 63.2493 72.0736 63.6242 73.657C63.8321 74.5142 64.1302 75.3471 64.5136 76.1418C63.0816 74.577 60.3156 74.9586 58.8511 76.4791C57.3866 77.9995 57.01 80.298 57.1553 82.3953C57.3836 85.6255 58.6376 88.6665 59.9865 91.6305C48.7802 91.2785 38.1816 83.4336 34.6122 72.8228C31.0427 62.2121 34.7722 49.4774 43.5802 42.4696Z" fill="#2F2E41"/>
<path opacity="0.2" d="M25.9287 146.5L33.3196 186.615L37.7517 187L25.9287 146.5Z" fill="black"/>
<path opacity="0.2" d="M107.323 143.477L99.9321 186.586L95.5 187L107.323 143.477Z" fill="black"/>
<path d="M49.88 28.9688C48.4629 29.5604 46.9836 28.9126 46.3639 27.4306C45.7443 25.9486 46.3224 24.4015 47.7633 23.801C49.2041 23.2005 50.6538 23.8483 51.2941 25.3777C51.9345 26.907 51.3416 28.3594 49.88 28.9688ZM47.1644 20.8399L46.0378 21.2984C45.7566 21.4137 45.4423 21.4196 45.1569 21.315C44.8715 21.2104 44.6358 21.0029 44.4962 20.7334L44.4399 20.624C43.2273 18.4438 43.088 15.7904 44.0308 12.7495C44.8994 10.0191 45.2611 8.09933 44.5348 6.35996C43.6928 4.3514 41.8962 3.72132 39.6045 4.63242C38.7152 5.00219 38.4187 4.99627 37.7339 5.68847C37.5817 5.84086 37.4004 5.96126 37.2008 6.04256C37.0012 6.12385 36.7873 6.16439 36.5717 6.16177C36.3631 6.15892 36.1571 6.11424 35.9662 6.03039C35.7752 5.94655 35.603 5.82524 35.46 5.67368C35.1855 5.38146 35.0327 4.99596 35.0327 4.59545C35.0327 4.19493 35.1855 3.80943 35.46 3.51721C36.6302 2.28894 38.0436 1.31684 39.6105 0.662636C44.5348 -1.38734 47.0221 1.63881 48.1457 4.3514C49.2574 7.0137 48.6319 9.46006 47.6298 12.6341C46.7879 15.2964 46.8383 17.2429 47.7929 19.1922C47.8597 19.3363 47.8973 19.4922 47.9036 19.6508C47.91 19.8094 47.8849 19.9677 47.8298 20.1166C47.7747 20.2656 47.6907 20.4022 47.5827 20.5187C47.4746 20.6352 47.3445 20.7293 47.2 20.7955L47.1525 20.8163L47.1644 20.8399Z" fill="#DD1E36"/>
<path d="M172.178 41.1325H148.25C148.104 41.1221 147.968 41.0569 147.868 40.9502C147.769 40.8434 147.713 40.703 147.713 40.5572C147.713 40.4113 147.769 40.2709 147.868 40.1641C147.968 40.0574 148.104 39.9922 148.25 39.9818H172.187C172.332 39.9922 172.469 40.0574 172.568 40.1641C172.668 40.2709 172.723 40.4113 172.723 40.5572C172.723 40.703 172.668 40.8434 172.568 40.9502C172.469 41.0569 172.332 41.1221 172.187 41.1325H172.178Z" fill="#DD1E36"/>
<path d="M202.53 41.3248H178.602C178.456 41.3144 178.32 41.2492 178.22 41.1425C178.121 41.0357 178.065 40.8953 178.065 40.7494C178.065 40.6036 178.121 40.4632 178.22 40.3564C178.32 40.2497 178.456 40.1845 178.602 40.1741H202.539C202.618 40.1684 202.697 40.1791 202.772 40.2054C202.847 40.2318 202.916 40.2732 202.974 40.3272C203.032 40.3812 203.078 40.4465 203.11 40.5192C203.142 40.5918 203.158 40.6702 203.158 40.7494C203.158 40.8287 203.142 40.907 203.11 40.9797C203.078 41.0523 203.032 41.1177 202.974 41.1717C202.916 41.2256 202.847 41.2671 202.772 41.2934C202.697 41.3198 202.618 41.3305 202.539 41.3248H202.53Z" fill="#DD1E36"/>
<path d="M232.882 41.5171H208.954C208.808 41.5066 208.672 41.4415 208.572 41.3347C208.473 41.228 208.417 41.0875 208.417 40.9417C208.417 40.7959 208.473 40.6554 208.572 40.5487C208.672 40.4419 208.808 40.3768 208.954 40.3663H232.882C232.961 40.3607 233.041 40.3713 233.115 40.3977C233.19 40.424 233.259 40.4655 233.317 40.5195C233.375 40.5735 233.422 40.6388 233.453 40.7114C233.485 40.7841 233.501 40.8625 233.501 40.9417C233.501 41.0209 233.485 41.0993 233.453 41.1719C233.422 41.2446 233.375 41.3099 233.317 41.3639C233.259 41.4179 233.19 41.4594 233.115 41.4857C233.041 41.5121 232.961 41.5227 232.882 41.5171Z" fill="#DD1E36"/>
<path d="M263.234 41.7093H239.306C239.16 41.6989 239.024 41.6337 238.924 41.527C238.825 41.4202 238.77 41.2798 238.77 41.1339C238.77 40.9881 238.825 40.8477 238.924 40.7409C239.024 40.6342 239.16 40.569 239.306 40.5586H263.234C263.38 40.569 263.516 40.6342 263.616 40.7409C263.715 40.8477 263.771 40.9881 263.771 41.1339C263.771 41.2798 263.715 41.4202 263.616 41.527C263.516 41.6337 263.38 41.6989 263.234 41.7093Z" fill="#DD1E36"/>
<path d="M160.162 35.8405C162.618 35.8405 164.609 33.8539 164.609 31.4034C164.609 28.9528 162.618 26.9662 160.162 26.9662C157.706 26.9662 155.715 28.9528 155.715 31.4034C155.715 33.8539 157.706 35.8405 160.162 35.8405Z" fill="#DD1E36"/>
<path d="M190.698 35.8405C193.154 35.8405 195.145 33.8539 195.145 31.4034C195.145 28.9528 193.154 26.9662 190.698 26.9662C188.242 26.9662 186.251 28.9528 186.251 31.4034C186.251 33.8539 188.242 35.8405 190.698 35.8405Z" fill="#DD1E36"/>
<path d="M221.234 35.8405C223.69 35.8405 225.681 33.8539 225.681 31.4034C225.681 28.9528 223.69 26.9662 221.234 26.9662C218.778 26.9662 216.787 28.9528 216.787 31.4034C216.787 33.8539 218.778 35.8405 221.234 35.8405Z" fill="#DD1E36"/>
<path d="M251.77 35.8405C254.226 35.8405 256.217 33.8539 256.217 31.4034C256.217 28.9528 254.226 26.9662 251.77 26.9662C249.314 26.9662 247.323 28.9528 247.323 31.4034C247.323 33.8539 249.314 35.8405 251.77 35.8405Z" fill="#DD1E36"/>
</g>
<defs>
<clipPath id="clip0_474_613">
<rect width="282" height="187" fill="white"/>
</clipPath>
</defs>
</svg>
