<svg width="33" height="32" viewBox="0 0 33 32" fill="none" xmlns="http://www.w3.org/2000/svg">
    <path
        d="M16.1363 1.92392C16.2826 1.61848 16.7174 1.61848 16.8637 1.92392L20.7844 10.1128L21.4327 9.80241L20.7844 10.1128C21.0528 10.6732 21.5858 11.0605 22.2017 11.1425L31.2014 12.3409C31.537 12.3856 31.6714 12.7991 31.4261 13.0326L24.8496 19.292C24.3995 19.7204 24.1959 20.3469 24.3083 20.9581L25.9496 29.8876C26.0108 30.2206 25.659 30.4762 25.3612 30.3151L17.3759 25.9947C16.8294 25.699 16.1706 25.699 15.6241 25.9947L7.63882 30.3151C7.34098 30.4762 6.98918 30.2206 7.0504 29.8876L8.69173 20.958C8.80406 20.3469 8.60048 19.7204 8.15039 19.292L1.57389 13.0326C1.32859 12.7991 1.46296 12.3856 1.79865 12.3409L10.7983 11.1425C11.4142 11.0605 11.9472 10.6732 12.2156 10.1128L16.1363 1.92392Z"
        fill="#FFD66C" stroke="#EFB153" stroke-width="1.4375" />
</svg>
