<svg width="18" height="19" viewBox="0 0 18 19" fill="none" xmlns="http://www.w3.org/2000/svg">
    <path
        d="M2.32894 0.706275C3.56203 0.249629 4.99181 0.535348 5.97878 1.56344C7.0997 2.73106 7.3014 4.4936 6.58382 5.87531L17.2925 17.0314L15.8783 18.5045L5.16933 7.34916C3.84277 8.09723 2.1502 7.88734 1.02903 6.71943C0.0417821 5.69105 -0.232388 4.20114 0.206522 2.91642L2.44325 5.2463C3.02903 5.85648 3.97878 5.85648 4.56457 5.2463C5.15035 4.6361 5.15035 3.64678 4.56457 3.03659L2.32894 0.706275ZM12.6963 2.6683L15.8783 0.82688L17.2925 2.30001L15.5247 5.61458L13.757 5.98286L11.6356 8.19255L10.2214 6.71943L12.3427 4.50972L12.6963 2.6683ZM5.97878 11.1388L7.393 12.612L2.08969 18.1363C1.69917 18.5431 1.066 18.5431 0.675482 18.1363C0.312852 17.7585 0.286952 17.1629 0.597772 16.754L0.675482 16.6632L5.97878 11.1388Z"
        fill="black" />
</svg>
