<svg width="34" height="34" viewBox="0 0 34 34" fill="none" xmlns="http://www.w3.org/2000/svg">
<path d="M16.0659 0H17.929C18.0235 0.0265447 18.1199 0.0463685 18.2173 0.0593228C21.1449 0.262083 23.8499 1.15016 26.2843 2.78198C30.4895 5.60026 33.0108 9.51823 33.8022 14.5306C33.8829 15.0415 33.9343 15.5568 34 16.0703V17.9297C33.9255 18.5194 33.8722 19.1135 33.7747 19.7005C33.1288 23.5601 31.3793 26.8361 28.504 29.4906C26.0097 31.8257 22.8518 33.3323 19.4646 33.8034C18.9527 33.8778 18.4382 33.9345 17.9254 34H16.0624C15.4076 33.9115 14.7485 33.8468 14.0973 33.7344C9.92759 33.0004 6.47473 31.0029 3.82742 27.7135C0.42336 23.4866 -0.684713 18.6602 0.402067 13.3485C1.7825 6.59281 7.65466 1.12979 14.4885 0.200104C15.0164 0.128385 15.5434 0.0664062 16.0659 0ZM16.9921 23.3954C18.8844 23.3954 20.7777 23.429 22.67 23.3856C23.541 23.3761 24.3733 23.0252 24.9874 22.4087C25.6015 21.7922 25.9481 20.9594 25.9525 20.0901C25.9886 18.0336 25.9886 15.9756 25.9525 13.9161C25.9484 13.0476 25.6033 12.2152 24.9913 11.5978C24.3792 10.9803 23.549 10.6269 22.6789 10.6135C21.0651 10.5701 19.4487 10.5967 17.8331 10.5967C15.6534 10.5967 13.4727 10.5719 11.2938 10.6161C10.4349 10.6331 9.61613 10.9827 9.0107 11.591C8.40527 12.1994 8.06057 13.0189 8.04945 13.8762C8.00805 15.9552 8.00805 18.0351 8.04945 20.1158C8.06002 20.9789 8.40802 21.8037 9.01924 22.4144C9.63046 23.0251 10.4565 23.3733 11.3213 23.3847C13.2074 23.4281 15.0998 23.3945 16.9921 23.3954Z" fill="#DB1E37"/>
<path d="M15 20V14L20 16.9995L15 20Z" fill="#DB1E37"/>
</svg>
